<?xml version="1.0" encoding="UTF-8"?>

<svg xmlns="http://www.w3.org/2000/svg" xmlns:xlink="http://www.w3.org/1999/xlink" width="256pt" height="256pt" viewBox="0 0 256 256" version="1.1">
    <g id="surface1">
        <path style=" stroke:none;fill-rule:nonzero;fill:rgb(40.392157%,22.745098%,71.764706%);fill-opacity:1;" d="M 192 42.667969 L 213.332031 85.332031 L 181.332031 85.332031 L 160 42.667969 L 138.667969 42.667969 L 160 85.332031 L 128 85.332031 L 106.667969 42.667969 L 85.332031 42.667969 L 106.667969 85.332031 L 74.667969 85.332031 L 53.332031 42.667969 L 42.667969 42.667969 C 30.933594 42.667969 21.441406 52.265625 21.441406 64 L 21.332031 192 C 21.332031 203.734375 30.933594 213.332031 42.667969 213.332031 L 213.332031 213.332031 C 225.066406 213.332031 234.667969 203.734375 234.667969 192 L 234.667969 42.667969 Z M 192 42.667969 "/>
        <polygon points="192,42.667969 213.332031,85.332031 181.332031,85.332031 160,42.667969" style="fill:rgb(250,250,250)" />
        <polygon points="138.667969,42.667969 160,85.332031 128,85.332031 106.667969,42.667969" style="fill:rgb(250,250,250)" />
        <polygon points="85.332031,42.667969 106.667969,85.332031 74.667969,85.332031 53.332031,42.667969" style="fill:rgb(250,250,250)" />
    </g>
</svg>
